<svg xmlns="http://www.w3.org/2000/svg" fill="none" viewBox="0 0 24 24" style="fill:var(--neutral--0);color:var(--neutral--0);" data-v-d458bad9="" data-v-c8469f04="">
<path fill="white" fill-rule="evenodd" d="M12 22.5c5.799 0 10.5-4.701 10.5-10.5S17.799 1.5 12 1.5 1.5 6.201 1.5 12 6.201 22.5 12 22.5Zm-1.014-11.497V4.63C9.082 6.602 8.043 8.81 7.803 11.01l3.181-.007Zm0 2-3.18.006c.243 2.194 1.282 4.394 3.18 6.36v-6.366Zm-5.193-1.99C6.007 8.6 7.003 6.248 8.735 4.15a8.508 8.508 0 0 0-5.179 6.867l2.237-.004ZM3.56 13.017l2.236-.004c.218 2.404 1.213 4.747 2.94 6.837a8.508 8.508 0 0 1-5.176-6.833ZM12.985 13l3.228-.006c-.241 2.217-1.296 4.441-3.228 6.424V13Zm3.227-2.006L12.986 11V4.582c1.928 1.98 2.981 4.198 3.226 6.411Zm2.012 1.996c-.214 2.408-1.207 4.756-2.933 6.85a8.508 8.508 0 0 0 5.152-6.854l-2.22.004Zm2.216-2.004-2.218.004c-.218-2.4-1.21-4.74-2.93-6.828a8.508 8.508 0 0 1 5.148 6.824Z" clip-rule="evenodd"></path>
</svg>