<svg xmlns="http://www.w3.org/2000/svg" fill="none" viewBox="0 0 24 24" style="fill:var(--neutral--0);color:var(--neutral--0);" data-v-d458bad9="" data-v-c8469f04="">
<path fill="white" d="M2.625 3.875a1 1 0 0 1 1 1v13.5a2 2 0 0 0 2 2h15.75a1 1 0 1 1 0 2H5.625a4 4 0 0 1-4-4v-13.5a1 1 0 0 1 1-1Z"></path>
<path fill="white" d="M20.75 9.164v2.086a1 1 0 1 0 2 0v-4.5a1 1 0 0 0-1-1h-4.5a1 1 0 1 0 0 2h2.086L15 12.086l-2.513-2.513a1.75 1.75 0 0 0-2.474 0l-3.97 3.97a1 1 0 1 0 1.414 1.414l3.793-3.793 2.513 2.513a1.75 1.75 0 0 0 2.474 0l4.513-4.513Z"></path>
</svg>