<svg xmlns="http://www.w3.org/2000/svg" fill="none" viewBox="0 0 24 24" style="fill:var(--neutral--0);color:var(--neutral--0);" data-v-d458bad9="" data-v-c8469f04="">
<path fill="white" d="M13.25 3a1 1 0 0 1 1-1h4.583a1 1 0 1 1 0 2h-1.538c.47.42 1.018.933 1.656 1.559a8.996 8.996 0 0 1 0 12.882 9.256 9.256 0 0 1-4.484 2.434 1 1 0 0 1-.434-1.952 7.254 7.254 0 0 0 3.517-1.909 6.996 6.996 0 0 0 0-10.028c-.999-.98-1.748-1.652-2.3-2.11V7.5a1 1 0 1 1-2 0V3ZM10.726 3.884a1 1 0 0 1-.759 1.193A7.255 7.255 0 0 0 6.45 6.986a6.996 6.996 0 0 0 0 10.028c.999.98 1.748 1.652 2.3 2.11V16.5a1 1 0 1 1 2 0V21a1 1 0 0 1-1 1H5.167a1 1 0 1 1 0-2h1.538c-.47-.42-1.018-.933-1.656-1.559a8.996 8.996 0 0 1 0-12.882 9.255 9.255 0 0 1 4.484-2.434 1 1 0 0 1 1.193.759Z"></path>
</svg>